<?xml version="1.0" standalone="no"?>
<!DOCTYPE svg PUBLIC "-//W3C//DTD SVG 20010904//EN"
 "http://www.w3.org/TR/2001/REC-SVG-20010904/DTD/svg10.dtd">
<svg version="1.0" xmlns="http://www.w3.org/2000/svg"
 width="800.000000pt" height="800.000000pt" viewBox="0 0 800.000000 800.000000"
 preserveAspectRatio="xMidYMid meet">
<metadata>
Created by potrace 1.11, written by Peter Selinger 2001-2013
</metadata>
<g transform="translate(0.000000,800.000000) scale(0.100000,-0.100000)"
fill="#000000" stroke="none">
<path d="M2269 7426 c-2 -2 -33 -7 -68 -10 -36 -4 -67 -8 -70 -10 -3 -2 -28
-7 -56 -10 -169 -22 -452 -126 -645 -236 -260 -150 -502 -381 -673 -645 -49
-77 -157 -280 -157 -297 0 -5 -7 -24 -15 -41 -35 -76 -93 -277 -110 -387 -4
-25 -9 -54 -11 -65 -7 -36 -17 -199 -17 -280 -1 -524 202 -1019 570 -1390 70
-71 88 -87 178 -161 63 -52 200 -144 214 -144 6 0 11 -3 11 -8 0 -12 285 -152
310 -152 5 0 24 -7 42 -14 35 -16 159 -54 199 -61 13 -3 35 -7 49 -10 52 -10
86 -16 120 -20 19 -2 46 -7 60 -11 42 -11 2190 -11 2200 1 9 11 6 2110 -3
2195 -6 50 -25 158 -42 233 -30 140 -106 345 -172 465 -39 72 -96 166 -103
172 -4 3 -15 20 -25 38 -11 17 -23 32 -27 32 -4 0 -8 5 -8 11 0 17 -85 115
-200 230 -247 248 -559 427 -899 515 -102 26 -109 28 -221 45 -70 11 -422 23
-431 15z m346 -419 c17 -3 50 -9 75 -12 25 -4 52 -9 60 -11 484 -111 865 -407
1080 -839 53 -107 112 -264 125 -335 3 -14 7 -36 10 -50 25 -128 27 -152 29
-295 2 -140 -9 -265 -29 -335 -2 -8 -7 -30 -10 -49 -8 -47 -67 -225 -76 -231
-5 -3 -10 -15 -12 -25 -6 -35 -113 -229 -159 -290 -57 -74 -127 -154 -188
-214 -76 -74 -211 -181 -230 -181 -5 0 -10 -4 -10 -8 0 -5 -19 -19 -42 -31
-145 -78 -268 -135 -268 -124 0 3 -6 1 -12 -4 -15 -12 -73 -33 -108 -39 -14
-3 -32 -7 -40 -11 -8 -3 -24 -7 -35 -9 -11 -1 -33 -5 -50 -9 -155 -33 -455
-36 -574 -6 -43 11 -99 22 -123 24 -10 1 -18 6 -18 11 0 5 -3 7 -6 4 -7 -7
-117 29 -189 62 -27 12 -72 33 -100 46 -56 25 -208 122 -213 135 -2 5 -8 9
-13 9 -6 0 -18 8 -29 18 -10 9 -43 37 -72 62 -126 105 -291 319 -367 475 -57
119 -117 294 -135 395 -3 19 -8 46 -11 60 -23 113 -23 382 0 500 24 129 67
270 112 373 39 89 111 220 125 225 4 2 8 10 8 18 0 8 5 14 10 14 6 0 10 5 10
11 0 15 108 145 186 224 244 243 603 413 937 441 39 4 73 8 75 9 5 5 243 -3
277 -8z"/>
<path d="M5835 6295 c-254 -40 -494 -145 -683 -298 -69 -56 -222 -221 -272
-292 -60 -88 -140 -231 -140 -252 0 -7 -5 -13 -11 -13 -5 0 -8 -4 -5 -8 3 -5
-1 -19 -8 -33 -7 -13 -14 -28 -15 -34 -2 -5 -5 -14 -7 -20 -6 -20 -28 -100
-30 -110 -1 -5 -3 -12 -4 -15 -4 -13 -21 -97 -26 -135 -10 -74 -16 -350 -12
-578 1 -53 -1 -100 -4 -103 -4 -3 -2 -18 2 -34 4 -16 6 -30 4 -32 -3 -4 -5
-213 -3 -468 0 -52 0 -99 -1 -105 -1 -5 -2 -14 -1 -19 1 -5 2 -69 2 -142 0
-92 4 -134 12 -137 19 -6 1560 0 1587 7 25 6 75 15 120 21 14 2 26 4 28 5 1 1
7 4 12 5 6 1 11 4 13 5 1 1 13 3 27 5 33 4 188 61 217 80 13 9 23 13 23 10 0
-9 111 56 195 114 88 60 130 97 215 183 206 211 351 510 387 803 16 129 7 370
-17 465 -5 19 -11 46 -13 60 -14 81 -128 359 -156 380 -4 3 -11 16 -17 30 -17
38 -102 147 -174 224 -69 73 -202 186 -218 186 -6 0 -12 3 -14 8 -5 12 -81 58
-166 101 -100 50 -258 104 -372 127 -110 21 -367 27 -475 9z"/>
<path d="M2987 3313 c-1 -1 -47 -4 -102 -6 -55 -3 -100 -6 -100 -7 0 -2 -20
-6 -70 -14 -59 -10 -192 -46 -240 -66 -106 -44 -292 -144 -315 -170 -3 -3 -23
-18 -45 -34 -147 -108 -314 -311 -403 -491 -29 -59 -87 -200 -82 -200 1 0 -4
-13 -10 -30 -6 -16 -13 -43 -15 -60 -1 -16 -6 -37 -9 -46 -4 -9 -8 -33 -9 -53
-1 -20 -4 -36 -8 -36 -13 0 -18 -258 -6 -378 8 -82 54 -280 69 -300 6 -6 8
-12 5 -12 -7 0 58 -146 101 -225 63 -117 205 -289 318 -383 70 -58 214 -151
297 -192 77 -37 231 -93 287 -104 14 -3 36 -7 50 -11 14 -3 45 -8 70 -11 25
-3 56 -7 70 -10 30 -5 257 -6 285 0 11 2 47 7 80 12 33 4 62 8 65 9 3 1 21 5
40 9 68 15 196 59 280 98 87 40 270 154 270 169 0 4 8 10 18 13 17 6 108 91
178 167 42 47 146 189 138 189 -4 0 0 8 8 18 18 20 99 172 92 172 -2 0 2 13
11 30 16 31 59 164 69 215 9 42 17 84 23 125 3 19 7 387 8 818 2 684 1 784
-12 789 -13 5 -1402 11 -1406 6z"/>
<path d="M4634 3302 c-13 -7 -22 -18 -18 -23 5 -9 9 -131 4 -154 -1 -5 -2 -14
-1 -19 2 -11 2 -268 0 -281 -1 -5 0 -14 1 -20 2 -12 2 -126 -1 -140 -1 -5 0
-14 1 -20 2 -12 2 -126 -1 -140 -1 -5 0 -14 1 -20 5 -23 2 -136 -3 -142 -4 -3
-2 -13 3 -23 5 -10 7 -20 4 -22 -2 -3 -5 -25 -4 -49 0 -24 0 -87 1 -139 0 -52
0 -99 -1 -105 -1 -5 -2 -13 -1 -17 0 -3 3 -64 6 -135 5 -129 9 -168 19 -213 4
-14 8 -38 10 -55 3 -16 9 -41 14 -55 5 -14 10 -29 11 -35 16 -110 174 -412
270 -516 289 -310 522 -437 929 -504 83 -14 303 -8 407 11 134 25 369 103 415
138 8 6 35 22 60 35 90 48 202 136 304 237 202 202 349 502 391 799 19 130 11
326 -20 505 -11 61 -73 237 -113 318 -97 197 -241 371 -412 500 -41 32 -77 59
-80 62 -3 3 -21 13 -40 24 -19 10 -57 31 -85 46 -27 16 -81 40 -120 55 -38 15
-79 31 -90 36 -11 5 -29 11 -40 13 -11 2 -40 9 -64 16 -65 17 -185 37 -220 36
-17 -1 -31 1 -31 4 0 3 -333 5 -741 5 -587 0 -745 -3 -765 -13z"/>
</g>
</svg>
